HIERARCHY
ROOT Hips
{
	OFFSET 0.000000 0.000000 0.000000
	CHANNELS 6 Xposition Yposition Zposition Zrotation Yrotation Xrotation 
	JOINT LeftUpLeg_virtual
	{
		OFFSET 0.000000 0.000000 0.000000
		CHANNELS 3 Zrotation Yrotation Xrotation
		JOINT LeftUpLeg
		{
			OFFSET 8.479694 -4.795517 -0.379053
			CHANNELS 3 Zrotation Yrotation Xrotation
			JOINT LeftLeg
			{
				OFFSET 0.485052 -32.551468 0.112863
				CHANNELS 3 Zrotation Yrotation Xrotation
				JOINT LeftFoot
				{
					OFFSET 0.438033 -32.635670 -3.012641
					CHANNELS 3 Zrotation Yrotation Xrotation
					JOINT LeftToeBase
					{
						OFFSET 0.970169 -13.225353 11.864223
						CHANNELS 3 Zrotation Yrotation Xrotation
						End Site
						{
							OFFSET 0.000000 0.000000 0.000000
						}
					}
				}
			}
		}
	}
	JOINT RightUpLeg_virtual
	{
		OFFSET 0.000000 0.000000 0.000000
		CHANNELS 3 Zrotation Yrotation Xrotation
		JOINT RightUpLeg
		{
			OFFSET -8.479694 -4.795517 -0.379053
			CHANNELS 3 Zrotation Yrotation Xrotation
			JOINT RightLeg
			{
				OFFSET -0.484100 -32.551483 0.112903
				CHANNELS 3 Zrotation Yrotation Xrotation
				JOINT RightFoot
				{
					OFFSET -0.438985 -32.635651 -3.012681
					CHANNELS 3 Zrotation Yrotation Xrotation
					JOINT RightToeBase
					{
						OFFSET -0.970169 -13.225354 11.864223
						CHANNELS 3 Zrotation Yrotation Xrotation
						End Site
						{
							OFFSET 0.000000 0.000000 0.000000
						}
					}
				}
			}
		}
	}
	JOINT Spine_virtual
	{
		OFFSET 0.000000 0.000000 0.000000
		CHANNELS 3 Zrotation Yrotation Xrotation
		JOINT Spine
		{
			OFFSET 0.000000 7.722015 1.166203
			CHANNELS 3 Zrotation Yrotation Xrotation
			JOINT Spine1
			{
				OFFSET 0.000000 12.024086 0.248766
				CHANNELS 3 Zrotation Yrotation Xrotation
				JOINT Spine2
				{
					OFFSET -0.000000 11.503036 -0.491240
					CHANNELS 3 Zrotation Yrotation Xrotation
					JOINT Neck_virtual
					{
						OFFSET 0.000000 0.000000 0.000000
						CHANNELS 3 Zrotation Yrotation Xrotation
						JOINT Neck
						{
							OFFSET 0.000000 18.430687 -3.123054
							CHANNELS 3 Zrotation Yrotation Xrotation
							JOINT Head
							{
								OFFSET -0.000000 9.051071 1.034021
								CHANNELS 3 Zrotation Yrotation Xrotation
								End Site
								{
									OFFSET 0.000000 0.000000 0.000000
								}
							}
						}
					}
					JOINT LeftShoulder_virtual
					{
						OFFSET 0.000000 0.000000 0.000000
						CHANNELS 3 Zrotation Yrotation Xrotation
						JOINT LeftShoulder
						{
							OFFSET 6.197824 13.665230 -4.064723
							CHANNELS 3 Zrotation Yrotation Xrotation
							JOINT LeftArm
							{
								OFFSET 7.778132 -0.187073 -1.709282
								CHANNELS 3 Zrotation Yrotation Xrotation
								JOINT LeftForeArm
								{
									OFFSET 21.954697 0.000000 -2.041093
									CHANNELS 3 Zrotation Yrotation Xrotation
									JOINT LeftHand
									{
										OFFSET 22.992908 0.000000 -0.870901
										CHANNELS 3 Zrotation Yrotation Xrotation
										End Site
										{
											OFFSET 0.000000 0.000000 0.000000
										}
									}
								}
							}
						}
					}
					JOINT RightShoulder_virtual
					{
						OFFSET 0.000000 0.000000 0.000000
						CHANNELS 3 Zrotation Yrotation Xrotation
						JOINT RightShoulder
						{
							OFFSET -6.197824 13.665230 -4.064723
							CHANNELS 3 Zrotation Yrotation Xrotation
							JOINT RightArm
							{
								OFFSET -7.778132 -0.187073 -1.709282
								CHANNELS 3 Zrotation Yrotation Xrotation
								JOINT RightForeArm
								{
									OFFSET -21.954697 0.000000 -2.041093
									CHANNELS 3 Zrotation Yrotation Xrotation
									JOINT RightHand
									{
										OFFSET -22.992908 0.000000 -0.870901
										CHANNELS 3 Zrotation Yrotation Xrotation
										End Site
										{
											OFFSET 0.000000 0.000000 0.000000
										}
									}
								}
							}
						}
					}
				}
			}
		}
	}
}
MOTION
Frames: 7
Frame Time: 0.033333
-89.105156 74.980713 117.629608 179.751960 -20.302768 -179.963395 -5.389401 2.898773 31.285757 4.943225 3.352369 -72.717602 5.668119 7.680131 55.539868 -4.001217 -6.828473 -8.177618 0.000000 0.000000 0.000000 0.027881 -1.472367 29.952343 1.615755 -5.615572 -77.710013 2.187704 2.107571 61.138676 -2.396287 6.860181 -4.482064 0.000000 0.000000 0.000000 7.312930 -1.374227 50.489523 -0.141148 2.815804 36.239150 -1.006312 -3.998325 3.198525 -0.000189 -0.053552 -0.025641 -0.225888 -3.985870 4.392187 4.223218 -10.203855 -27.440538 0.000000 0.000000 0.000000 0.433410 -2.935819 -0.477119 4.312528 -13.360059 1.650809 1.269381 -42.237012 -50.491149 -22.911781 -45.512679 13.088386 0.000000 0.000000 0.000000 -3.321417 -1.338546 -0.554931 21.061252 37.203924 6.885132 10.133844 15.991500 -29.293459 -14.878445 49.942213 -16.980253 0.000000 0.000000 0.000000 
-89.010956 75.355347 117.436287 179.738559 -21.093436 -179.942713 -5.104476 2.144776 30.581414 4.337970 3.569761 -71.395762 5.743792 7.650200 54.691394 -4.692060 -6.779723 -7.419797 0.000000 0.000000 0.000000 0.582998 -2.011086 29.107790 0.938038 -5.587604 -76.287783 2.224140 2.239140 60.586271 -2.620024 6.520429 -4.392925 0.000000 0.000000 0.000000 7.885162 -1.892910 49.291061 0.233082 3.138992 35.720271 -0.932387 -3.808162 3.655554 0.035310 -0.049385 -0.011942 -0.238225 -3.894949 4.907464 4.366141 -10.366440 -27.024487 0.000000 0.000000 0.000000 0.378874 -2.812445 -0.035301 2.777289 -13.704501 1.652958 -2.516197 -46.057550 -43.558264 -24.987735 -50.894564 15.753901 0.000000 0.000000 0.000000 -3.365244 -1.278625 0.027685 20.854181 37.972215 6.794969 11.279210 15.220843 -28.043100 -15.625846 52.012389 -17.950553 0.000000 0.000000 0.000000 
-88.948578 75.755348 117.253250 179.759405 -21.953131 -179.914928 -4.714903 1.625578 29.655046 3.891068 3.608833 -69.922962 5.686913 7.739941 53.777696 -5.362268 -6.767932 -6.501971 0.000000 0.000000 0.000000 1.113574 -2.362484 28.035085 0.121985 -5.426480 -74.522165 2.209772 2.503665 60.003963 -2.972010 5.988268 -4.495619 0.000000 0.000000 0.000000 8.452339 -2.261388 47.774004 0.490820 3.439408 35.214488 -0.883056 -3.617934 4.184959 0.033398 -0.021600 0.021515 -0.173287 -3.720007 5.481496 4.506044 -10.585517 -26.488237 0.000000 0.000000 0.000000 0.410407 -2.688990 0.474046 1.447910 -13.903125 1.697827 -6.113538 -48.183085 -37.236460 -27.159957 -55.544225 18.547227 0.000000 0.000000 0.000000 -3.348345 -1.151998 0.564124 20.836278 38.468397 6.677109 12.365030 15.227224 -26.982761 -16.318152 53.601347 -18.874236 0.000000 0.000000 0.000000 
-88.865707 76.117035 117.090828 179.909642 -22.746931 -179.972329 -4.286894 1.422491 28.631115 3.584882 3.698928 -68.475419 5.502520 7.859430 53.097160 -5.942307 -6.810305 -5.453357 0.000000 0.000000 0.000000 1.664496 -2.461063 26.932006 -0.597228 -5.168867 -72.690971 2.142621 2.744853 59.499321 -3.284605 5.420106 -4.614486 0.000000 0.000000 0.000000 9.001067 -2.440017 46.192986 0.571916 3.701014 34.744978 -0.902078 -3.447564 4.709105 0.002940 0.041090 0.044036 -0.047133 -3.563424 6.067526 4.599563 -10.441858 -25.979509 0.000000 0.000000 0.000000 0.485883 -2.602710 1.037141 0.679947 -13.912452 1.571011 -8.961522 -48.714880 -32.608761 -28.973478 -58.814916 20.726033 0.000000 0.000000 0.000000 -3.267129 -1.007471 1.072066 21.039687 38.843815 6.669076 13.110228 15.790760 -26.107929 -16.643858 54.648525 -19.342534 0.000000 0.000000 0.000000 
-88.777946 76.411263 116.923599 -179.937864 -23.690221 179.988025 -3.907909 1.407194 27.693033 3.630939 3.567340 -67.599079 5.124915 7.600802 52.830253 -6.867345 -7.341747 -3.905196 0.000000 0.000000 0.000000 2.093613 -2.429116 26.016061 -1.093471 -5.022643 -71.173126 1.930286 2.901193 59.105629 -3.572451 4.849820 -4.808103 0.000000 0.000000 0.000000 9.386650 -2.491063 44.824916 0.555371 3.724185 34.272411 -0.861153 -3.425359 5.247551 0.019890 0.003132 0.034199 -0.097210 -3.607151 6.632466 4.677001 -10.423212 -25.473450 0.000000 0.000000 0.000000 0.435752 -2.490087 1.552581 0.241932 -13.842282 1.684212 -10.068306 -47.956992 -30.289690 -29.585569 -60.541656 21.868594 0.000000 0.000000 0.000000 -3.317651 -0.857967 1.601625 21.168097 38.915105 6.446598 13.634183 16.986276 -25.047892 -16.800146 55.296269 -19.586542 0.000000 0.000000 0.000000 
-88.696953 76.598152 116.793655 -179.951729 -24.441723 179.997013 -3.639305 1.645056 27.034613 3.967186 3.361142 -67.272869 4.534137 7.180636 52.791618 -7.932910 -8.136782 -2.132887 0.000000 0.000000 0.000000 2.322681 -2.205823 25.404153 -1.240823 -5.043740 -70.100670 1.546957 3.154035 58.949293 -3.633378 4.448880 -5.007794 0.000000 0.000000 0.000000 9.524486 -2.316667 43.838271 0.327350 3.680634 33.859997 -0.889282 -3.395671 5.678465 0.021536 0.033631 0.021225 -0.157062 -3.566043 7.184881 4.673400 -10.272107 -25.062862 0.000000 0.000000 0.000000 0.408010 -2.441097 2.076168 0.400473 -13.738768 1.440935 -10.250374 -46.607578 -29.743257 -28.913082 -60.571033 21.583657 0.000000 0.000000 0.000000 -3.317109 -0.820895 2.063914 21.474297 38.561510 6.323861 13.761214 18.428045 -24.007712 -16.773550 55.905006 -19.443503 0.000000 0.000000 0.000000 
-88.643784 76.664589 116.736389 179.990716 -24.873736 -179.900366 -3.409046 1.893327 26.668264 4.787592 2.979536 -67.643188 3.848459 6.250152 53.142365 -8.744602 -8.867266 -0.926211 0.000000 0.000000 0.000000 2.314016 -1.742814 25.115089 -0.966142 -5.196383 -69.656612 1.103328 3.402581 58.951998 -3.576735 4.334262 -5.231768 0.000000 0.000000 0.000000 9.453663 -1.919897 43.313744 0.154179 3.526966 33.540802 -1.008653 -3.472027 5.978852 -0.019816 -0.013106 0.053544 -0.156484 -3.550940 7.607609 4.589818 -10.094165 -24.800953 0.000000 0.000000 0.000000 0.462158 -2.430206 2.511132 0.973695 -13.605289 1.291578 -9.403606 -45.017084 -31.191271 -27.114801 -58.728903 20.117578 0.000000 0.000000 0.000000 -3.273358 -0.929463 2.433739 21.756301 37.939324 5.998385 13.618498 20.131300 -22.927043 -16.810105 56.634446 -19.500477 0.000000 0.000000 0.000000 
